<?xml version="1.0" encoding="UTF-8" standalone="no"?>
<svg
   xmlns:dc="http://purl.org/dc/elements/1.1/"
   xmlns:cc="http://creativecommons.org/ns#"
   xmlns:rdf="http://www.w3.org/1999/02/22-rdf-syntax-ns#"
   xmlns:svg="http://www.w3.org/2000/svg"
   xmlns="http://www.w3.org/2000/svg"
   id="svg4412"
   version="1.1"
   viewBox="0 0 35.630305 35.630307"
   height="35.630306mm"
   width="35.630306mm">
  <defs
     id="defs4406">
    <clipPath
       id="clipPath1556"
       clipPathUnits="userSpaceOnUse">
      <path
         id="path1554"
         d="m 242.762,448.246 h 35.55 v -71.091 h -35.55 z" />
    </clipPath>
    <clipPath
       id="clipPath1708"
       clipPathUnits="userSpaceOnUse">
      <path
         id="path1706"
         d="M 365.557,372.594 H 455.07 V 359.197 H 365.557 Z" />
    </clipPath>
    <clipPath
       id="clipPath1300"
       clipPathUnits="userSpaceOnUse">
      <path
         id="path1298"
         d="m 367.886,300.778 h 65.195 V 235.58 h -65.195 z" />
    </clipPath>
    <clipPath
       id="clipPath1372"
       clipPathUnits="userSpaceOnUse">
      <path
         id="path1370"
         d="M 363.392,237.141 H 403.03 V 205.229 H 363.392 Z" />
    </clipPath>
    <clipPath
       id="clipPath1616"
       clipPathUnits="userSpaceOnUse">
      <path
         id="path1614"
         d="M 57.2368,150.854 H 130.65 V 77.4414 H 57.2368 Z" />
    </clipPath>
    <clipPath
       id="clipPath664"
       clipPathUnits="userSpaceOnUse">
      <path
         id="path662"
         d="m 262.361,66.1875 h 30.868 V 44.2773 h -30.868 z" />
    </clipPath>
    <clipPath
       id="clipPath680"
       clipPathUnits="userSpaceOnUse">
      <path
         id="path678"
         d="m 206.024,83.7422 h 33.13 v -18.583 h -33.13 z" />
    </clipPath>
    <clipPath
       id="clipPath786"
       clipPathUnits="userSpaceOnUse">
      <path
         id="path784"
         d="m 61,448.16 h 64.61 v -70.1 H 61 Z" />
    </clipPath>
    <clipPath
       id="clipPath1064"
       clipPathUnits="userSpaceOnUse">
      <path
         id="path1062"
         d="m 170,444.75 h 70.24 V 377.41 H 170 Z" />
    </clipPath>
    <clipPath
       id="clipPath1120"
       clipPathUnits="userSpaceOnUse">
      <path
         id="path1118"
         d="m 289.83,436.26 h 63.56 v -58.67 h -63.56 z" />
    </clipPath>
    <clipPath
       id="clipPath1158"
       clipPathUnits="userSpaceOnUse">
      <path
         id="path1156"
         d="m 402.08,432.49 h 65.86 v -54.83 h -65.86 z" />
    </clipPath>
    <clipPath
       id="clipPath1182"
       clipPathUnits="userSpaceOnUse">
      <path
         id="path1180"
         d="M 397.86,434.26 H 430.9 V 409.1 h -33.04 z" />
    </clipPath>
    <clipPath
       id="clipPath32"
       clipPathUnits="userSpaceOnUse">
      <path
         id="path30"
         d="m 54.02,326.01 h 70.94 V 260.67 H 54.02 Z" />
    </clipPath>
    <clipPath
       id="clipPath824"
       clipPathUnits="userSpaceOnUse">
      <path
         id="path822"
         d="m 175.93,327.18 h 64.13 v -65.26 h -64.13 z" />
    </clipPath>
    <clipPath
       id="clipPath844"
       clipPathUnits="userSpaceOnUse">
      <path
         id="path842"
         d="m 183.243,324.715 h 25.326 v -33.647 h -25.326 z" />
    </clipPath>
    <clipPath
       id="clipPath908"
       clipPathUnits="userSpaceOnUse">
      <path
         id="path906"
         d="m 197.267,316.041 h 19.948 v -35.416 h -19.948 z" />
    </clipPath>
    <clipPath
       id="clipPath124"
       clipPathUnits="userSpaceOnUse">
      <path
         id="path122"
         d="m 291.95,324.64 h 62.06 v -63.89 h -62.06 z" />
    </clipPath>
    <clipPath
       id="clipPath146"
       clipPathUnits="userSpaceOnUse">
      <path
         id="path144"
         d="m 283.858,324.585 h 46.95 v -27.81 h -46.95 z" />
    </clipPath>
    <clipPath
       id="clipPath166"
       clipPathUnits="userSpaceOnUse">
      <path
         id="path164"
         d="m 286.145,322.192 h 3.077 v -3.077 h -3.077 z" />
    </clipPath>
    <clipPath
       id="clipPath182"
       clipPathUnits="userSpaceOnUse">
      <path
         id="path180"
         d="m 286.145,318.236 h 3.077 v -8.572 h -3.077 z" />
    </clipPath>
    <clipPath
       id="clipPath202"
       clipPathUnits="userSpaceOnUse">
      <path
         id="path200"
         d="m 396.97,320.9 h 70.44 v -60.11 h -70.44 z" />
    </clipPath>
    <clipPath
       id="clipPath228"
       clipPathUnits="userSpaceOnUse">
      <path
         id="path226"
         d="m 394.101,323.768 h 56.548 v -8.047 h -56.548 z" />
    </clipPath>
    <clipPath
       id="clipPath244"
       clipPathUnits="userSpaceOnUse">
      <path
         id="path242"
         d="m 419.483,308.056 h 5.784 v -2.671 h -5.784 z" />
    </clipPath>
    <clipPath
       id="clipPath260"
       clipPathUnits="userSpaceOnUse">
      <path
         id="path258"
         d="m 402.132,315.721 h 42.336 v -1.704 h -42.336 z" />
    </clipPath>
    <clipPath
       id="clipPath280"
       clipPathUnits="userSpaceOnUse">
      <path
         id="path278"
         d="m 395.92,295.074 h 2.318 v -2.318 h -2.318 z" />
    </clipPath>
    <clipPath
       id="clipPath300"
       clipPathUnits="userSpaceOnUse">
      <path
         id="path298"
         d="m 394.101,323.768 h 5.939 v -8.047 h -5.939 z" />
    </clipPath>
    <clipPath
       id="clipPath316"
       clipPathUnits="userSpaceOnUse">
      <path
         id="path314"
         d="m 444.711,323.768 h 5.938 v -8.047 h -5.938 z" />
    </clipPath>
    <clipPath
       id="clipPath332"
       clipPathUnits="userSpaceOnUse">
      <path
         id="path330"
         d="m 395.92,303.125 h 2.318 v -6.698 h -2.318 z" />
    </clipPath>
    <clipPath
       id="clipPath352"
       clipPathUnits="userSpaceOnUse">
      <path
         id="path350"
         d="M 58.7202,214.67 H 124.85 V 144.13 H 58.7202 Z" />
    </clipPath>
    <clipPath
       id="clipPath412"
       clipPathUnits="userSpaceOnUse">
      <path
         id="path410"
         d="m 178.09,206.33 h 62.17 v -61.92 h -62.17 z" />
    </clipPath>
    <clipPath
       id="clipPath492"
       clipPathUnits="userSpaceOnUse">
      <path
         id="path490"
         d="m 168.416,211.7 h 48.869 v -48.869 h -48.869 z" />
    </clipPath>
    <clipPath
       id="clipPath512"
       clipPathUnits="userSpaceOnUse">
      <path
         id="path510"
         d="m 292.86,214.17 h 60.71 v -70.04 h -60.71 z" />
    </clipPath>
    <clipPath
       id="clipPath540"
       clipPathUnits="userSpaceOnUse">
      <path
         id="path538"
         d="m 316.605,206.967 h 5.836 v -5.836 h -5.836 z" />
    </clipPath>
    <clipPath
       id="clipPath556"
       clipPathUnits="userSpaceOnUse">
      <path
         id="path554"
         d="m 319.69,200.173 h 2.688 v -2.688 h -2.688 z" />
    </clipPath>
    <clipPath
       id="clipPath576"
       clipPathUnits="userSpaceOnUse">
      <path
         id="path574"
         d="m 400.11,199.1 h 67.03 v -54.95 h -67.03 z" />
    </clipPath>
    <clipPath
       id="clipPath622"
       clipPathUnits="userSpaceOnUse">
      <path
         id="path620"
         d="m 400.113,186.467 h 46.373 v -17.886 h -46.373 z" />
    </clipPath>
    <clipPath
       id="clipPath686"
       clipPathUnits="userSpaceOnUse">
      <path
         id="path684"
         d="M 59.7002,91.4805 H 124.46 V 27.8398 H 59.7002 Z" />
    </clipPath>
    <clipPath
       id="clipPath658"
       clipPathUnits="userSpaceOnUse">
      <path
         id="path656"
         d="M 166.031,86 H 238.72 V 27.46 h -72.689 z" />
    </clipPath>
    <clipPath
       id="clipPath742"
       clipPathUnits="userSpaceOnUse">
      <path
         id="path740"
         d="m 283.17,88.8896 h 70.28 V 27.46 h -70.28 z" />
    </clipPath>
    <clipPath
       id="clipPath928"
       clipPathUnits="userSpaceOnUse">
      <path
         id="path926"
         d="m 408.15,98.4072 h 61.24 V 27.9404 h -61.24 z" />
    </clipPath>
    <clipPath
       id="clipPath1022"
       clipPathUnits="userSpaceOnUse">
      <path
         id="path1020"
         d="m 408.15,83.8184 h 27.389 V 59.2715 H 408.15 Z" />
    </clipPath>
  </defs>
  <metadata
     id="metadata4409">
    <rdf:RDF>
      <cc:Work
         rdf:about="">
        <dc:format>image/svg+xml</dc:format>
        <dc:type
           rdf:resource="http://purl.org/dc/dcmitype/StillImage" />
        <dc:title></dc:title>
      </cc:Work>
    </rdf:RDF>
  </metadata>
  <g
     transform="translate(56.399696,16.430092)"
     id="layer1">
    <g
       id="g4271"
       transform="matrix(0.35277777,0,0,-0.35277777,-187.46918,27.887455)">
      <g
         id="g918"
         transform="translate(469.7002,75.1299)">
        <path
           d="m 0,0 c 0,-1.84 -0.101,-3.66 -0.311,-5.45 -2.449,-21.529 -19.229,-38.699 -40.58,-41.739 -2.21,-0.321 -4.479,-0.481 -6.779,-0.481 -26.32,0 -47.66,21.34 -47.66,47.67 0,26.32 21.34,47.66 47.66,47.66 C -21.34,47.66 0,26.32 0,0"
           style="fill:#e74c3c;fill-opacity:1;fill-rule:nonzero;stroke:none"
           id="path920" />
      </g>
      <g
         id="g922">
        <g
           id="g924" />
        <g
           id="g936">
          <g
             clip-path="url(#clipPath928)"
             id="g934"
             style="opacity:0.5">
            <g
               transform="translate(469.3896,69.6797)"
               id="g932">
              <path
                 d="m 0,0 c -2.449,-21.529 -19.229,-38.699 -40.58,-41.739 l -20.659,22.858 28.653,47.609 z"
                 style="fill:#c0392b;fill-opacity:1;fill-rule:nonzero;stroke:none"
                 id="path930" />
            </g>
          </g>
        </g>
      </g>
      <g
         id="g938"
         transform="translate(434.8223,100.3887)">
        <path
           d="m 0,0 h -25.955 c -1.094,0 -1.981,-0.887 -1.981,-1.981 v -45.627 c 0,-1.094 0.887,-1.982 1.981,-1.982 H 0 c 1.095,0 1.981,0.888 1.981,1.982 V -1.981 C 1.981,-0.887 1.095,0 0,0"
           style="fill:#ffffff;fill-opacity:1;fill-rule:nonzero;stroke:none"
           id="path940" />
      </g>
      <g
         id="g942"
         transform="translate(422.6191,98.5566)">
        <path
           d="m 0,0 c 0,-0.296 -0.239,-0.535 -0.533,-0.535 -0.296,0 -0.535,0.239 -0.535,0.535 0,0.295 0.239,0.534 0.535,0.534 C -0.239,0.534 0,0.295 0,0"
           style="fill:#ecf0f1;fill-opacity:1;fill-rule:nonzero;stroke:none"
           id="path944" />
      </g>
      <g
         id="g946"
         transform="translate(419.7891,96.6865)">
        <path
           d="m 0,0 c 0,-0.295 -0.239,-0.534 -0.535,-0.534 -0.295,0 -0.534,0.239 -0.534,0.534 0,0.295 0.239,0.534 0.534,0.534 C -0.239,0.534 0,0.295 0,0"
           style="fill:#ecf0f1;fill-opacity:1;fill-rule:nonzero;stroke:none"
           id="path948" />
      </g>
      <g
         id="g950"
         transform="translate(424.916,97.2207)">
        <path
           d="M 0,0 H -3.525 C -3.82,0 -4.06,-0.239 -4.06,-0.534 c 0,-0.295 0.24,-0.534 0.535,-0.534 H 0 c 0.295,0 0.535,0.239 0.535,0.534 C 0.535,-0.239 0.295,0 0,0"
           style="fill:#ecf0f1;fill-opacity:1;fill-rule:nonzero;stroke:none"
           id="path952" />
      </g>
      <path
         d="m 408.15,59.271 h 27.389 V 90.959 H 408.15 Z"
         style="fill:#ffcd02;fill-opacity:1;fill-rule:nonzero;stroke:none"
         id="path954" />
      <path
         d="M 435.539,90.959 H 408.15 v 3.69 h 27.389 z"
         style="fill:#4f2b4f;fill-opacity:1;fill-rule:nonzero;stroke:none"
         id="path956" />
      <path
         d="m 431.08,92.037 h -0.708 v 1.535 h 0.708 z"
         style="fill:#a5c63b;fill-opacity:1;fill-rule:nonzero;stroke:none"
         id="path958" />
      <path
         d="m 432.127,92.037 h -0.708 v 1.535 h 0.708 z"
         style="fill:#a5c63b;fill-opacity:1;fill-rule:nonzero;stroke:none"
         id="path960" />
      <path
         d="m 433.172,92.037 h -0.708 v 1.535 h 0.708 z"
         style="fill:#a5c63b;fill-opacity:1;fill-rule:nonzero;stroke:none"
         id="path962" />
      <path
         d="m 433.932,92.34 h -0.422 v 0.928 h 0.422 z"
         style="fill:#a5c63b;fill-opacity:1;fill-rule:nonzero;stroke:none"
         id="path964" />
      <g
         id="g966"
         transform="translate(410.1318,92.79)">
        <path
           d="m 0,0 c 0,-0.264 -0.215,-0.479 -0.479,-0.479 -0.263,0 -0.478,0.215 -0.478,0.479 0,0.264 0.215,0.478 0.478,0.478 C -0.215,0.478 0,0.264 0,0"
           style="fill:#ffffff;fill-opacity:1;fill-rule:nonzero;stroke:none"
           id="path968" />
      </g>
      <g
         id="g970"
         transform="translate(411.5322,92.79)">
        <path
           d="m 0,0 c 0,-0.264 -0.214,-0.479 -0.479,-0.479 -0.263,0 -0.477,0.215 -0.477,0.479 0,0.264 0.214,0.478 0.477,0.478 C -0.214,0.478 0,0.264 0,0"
           style="fill:#ffffff;fill-opacity:1;fill-rule:nonzero;stroke:none"
           id="path972" />
      </g>
      <g
         id="g974"
         transform="translate(412.9326,92.79)">
        <path
           d="m 0,0 c 0,-0.264 -0.214,-0.479 -0.478,-0.479 -0.264,0 -0.478,0.215 -0.478,0.479 0,0.264 0.214,0.478 0.478,0.478 C -0.214,0.478 0,0.264 0,0"
           style="fill:#ffffff;fill-opacity:1;fill-rule:nonzero;stroke:none"
           id="path976" />
      </g>
      <g
         id="g978"
         transform="translate(414.4053,93.2734)">
        <path
           d="m 0,0 c 0.313,0.232 0.698,0.37 1.115,0.37 0.42,0 0.808,-0.14 1.121,-0.373 L 2.07,-0.225 c -0.264,0.202 -0.596,0.32 -0.955,0.32 -0.357,0 -0.686,-0.117 -0.951,-0.315 z"
           style="fill:#ffffff;fill-opacity:1;fill-rule:nonzero;stroke:none"
           id="path980" />
      </g>
      <g
         id="g982"
         transform="translate(414.7441,92.8203)">
        <path
           d="m 0,0 c 0.217,0.16 0.486,0.257 0.776,0.257 0.293,0 0.565,-0.098 0.783,-0.262 L 1.394,-0.226 c -0.172,0.132 -0.387,0.207 -0.618,0.207 -0.229,0 -0.441,-0.074 -0.612,-0.205 z"
           style="fill:#ffffff;fill-opacity:1;fill-rule:nonzero;stroke:none"
           id="path984" />
      </g>
      <g
         id="g986"
         transform="translate(415.5205,92.4785)">
        <path
           d="m 0,0 c -0.158,0 -0.304,-0.053 -0.421,-0.139 l 0.424,-0.569 0.422,0.565 C 0.307,-0.053 0.159,0 0,0"
           style="fill:#ffffff;fill-opacity:1;fill-rule:nonzero;stroke:none"
           id="path988" />
      </g>
      <g
         id="g990"
         transform="translate(419.4629,92.0879)">
        <path
           d="M 0,0 H -0.151 V 0.967 C -0.188,0.932 -0.236,0.896 -0.296,0.862 -0.355,0.827 -0.408,0.802 -0.455,0.784 v 0.147 c 0.085,0.04 0.158,0.088 0.223,0.144 0.063,0.057 0.108,0.113 0.134,0.166 H 0 Z"
           style="fill:#ffffff;fill-opacity:1;fill-rule:nonzero;stroke:none"
           id="path992" />
      </g>
      <g
         id="g994"
         transform="translate(420.6484,92.2334)">
        <path
           d="m 0,0 v -0.146 h -0.816 c -0.001,0.037 0.004,0.072 0.017,0.106 0.022,0.055 0.054,0.11 0.1,0.164 0.046,0.055 0.112,0.116 0.199,0.188 0.134,0.109 0.225,0.197 0.271,0.261 0.048,0.065 0.072,0.125 0.072,0.183 0,0.059 -0.022,0.11 -0.065,0.151 C -0.265,0.949 -0.32,0.97 -0.39,0.97 -0.463,0.97 -0.521,0.947 -0.565,0.903 -0.609,0.86 -0.631,0.8 -0.632,0.722 l -0.156,0.016 c 0.011,0.116 0.051,0.205 0.121,0.266 0.069,0.06 0.163,0.092 0.28,0.092 0.118,0 0.213,-0.033 0.282,-0.1 0.069,-0.065 0.104,-0.147 0.104,-0.243 0,-0.05 -0.011,-0.099 -0.03,-0.147 C -0.052,0.559 -0.086,0.509 -0.133,0.455 -0.18,0.402 -0.258,0.33 -0.366,0.238 -0.457,0.161 -0.516,0.109 -0.541,0.082 -0.567,0.056 -0.589,0.027 -0.605,0 Z"
           style="fill:#ffffff;fill-opacity:1;fill-rule:nonzero;stroke:none"
           id="path996" />
      </g>
      <path
         d="m 420.896,92.261 h 0.174 v -0.173 h -0.174 z m 0,0.722 h 0.174 v -0.174 h -0.174 z"
         style="fill:#ffffff;fill-opacity:1;fill-rule:nonzero;stroke:none"
         id="path998" />
      <g
         id="g1000"
         transform="translate(421.4473,92.6973)">
        <path
           d="m 0,0 c 0,-0.203 0.023,-0.338 0.071,-0.405 0.048,-0.068 0.106,-0.101 0.176,-0.101 0.069,0 0.128,0.033 0.176,0.102 C 0.47,-0.337 0.494,-0.202 0.494,0 0.494,0.204 0.47,0.339 0.423,0.405 0.375,0.473 0.316,0.506 0.245,0.506 0.176,0.506 0.12,0.477 0.078,0.417 0.026,0.342 0,0.203 0,0 m -0.156,0 c 0,0.146 0.015,0.264 0.045,0.353 0.03,0.088 0.075,0.158 0.134,0.206 0.059,0.048 0.133,0.073 0.224,0.073 0.066,0 0.124,-0.014 0.175,-0.04 C 0.471,0.564 0.513,0.526 0.546,0.476 0.578,0.426 0.604,0.364 0.622,0.292 0.641,0.22 0.65,0.123 0.65,0 0.65,-0.145 0.635,-0.262 0.605,-0.351 0.575,-0.44 0.531,-0.509 0.472,-0.558 0.412,-0.606 0.337,-0.631 0.247,-0.631 c -0.119,0 -0.213,0.043 -0.281,0.128 -0.081,0.104 -0.122,0.271 -0.122,0.503"
           style="fill:#ffffff;fill-opacity:1;fill-rule:nonzero;stroke:none"
           id="path1002" />
      </g>
      <g
         id="g1004"
         transform="translate(422.4072,92.6973)">
        <path
           d="m 0,0 c 0,-0.203 0.024,-0.338 0.071,-0.405 0.048,-0.068 0.107,-0.101 0.176,-0.101 0.069,0 0.128,0.033 0.176,0.102 C 0.471,-0.337 0.494,-0.202 0.494,0 0.494,0.204 0.471,0.339 0.423,0.405 0.375,0.473 0.316,0.506 0.245,0.506 0.176,0.506 0.12,0.477 0.079,0.417 0.026,0.342 0,0.203 0,0 m -0.156,0 c 0,0.146 0.015,0.264 0.046,0.353 0.03,0.088 0.074,0.158 0.132,0.206 0.061,0.048 0.135,0.073 0.225,0.073 0.066,0 0.124,-0.014 0.175,-0.04 C 0.472,0.564 0.513,0.526 0.546,0.476 0.578,0.426 0.604,0.364 0.622,0.292 0.641,0.22 0.65,0.123 0.65,0 0.65,-0.145 0.635,-0.262 0.604,-0.351 0.576,-0.44 0.531,-0.509 0.472,-0.558 0.412,-0.606 0.337,-0.631 0.247,-0.631 c -0.119,0 -0.213,0.043 -0.28,0.128 -0.082,0.104 -0.123,0.271 -0.123,0.503"
           style="fill:#ffffff;fill-opacity:1;fill-rule:nonzero;stroke:none"
           id="path1006" />
      </g>
      <g
         id="g1008"
         transform="translate(423.916,92.7363)">
        <path
           d="M 0,0 H 0.319 C 0.426,0 0.5,0.02 0.545,0.059 0.589,0.098 0.611,0.153 0.611,0.225 0.611,0.276 0.598,0.321 0.572,0.357 0.546,0.395 0.512,0.419 0.469,0.431 0.441,0.438 0.391,0.441 0.316,0.441 H 0 Z M -0.163,-0.648 V 0.588 H 0.303 C 0.385,0.588 0.447,0.583 0.491,0.575 0.552,0.565 0.603,0.546 0.644,0.518 0.685,0.489 0.717,0.449 0.743,0.398 0.768,0.348 0.78,0.291 0.78,0.229 0.78,0.125 0.746,0.035 0.68,-0.037 0.612,-0.109 0.492,-0.146 0.317,-0.146 H 0 v -0.502 z"
           style="fill:#ffffff;fill-opacity:1;fill-rule:nonzero;stroke:none"
           id="path1010" />
      </g>
      <g
         id="g1012"
         transform="translate(424.8994,92.0879)">
        <path
           d="M 0,0 V 1.236 H 0.246 L 0.538,0.36 C 0.565,0.279 0.585,0.218 0.598,0.178 0.611,0.223 0.634,0.288 0.663,0.376 l 0.296,0.86 H 1.18 V 0 H 1.021 V 1.034 L 0.662,0 H 0.515 L 0.157,1.052 V 0 Z"
           style="fill:#ffffff;fill-opacity:1;fill-rule:nonzero;stroke:none"
           id="path1014" />
      </g>
      <g
         id="g1016">
        <g
           id="g1018" />
        <g
           id="g1030">
          <g
             clip-path="url(#clipPath1022)"
             id="g1028"
             style="opacity:0.5">
            <g
               transform="translate(435.5391,83.8184)"
               id="g1026">
              <path
                 d="m 0,0 c -3.767,-16.544 -9.648,-18.715 -27.389,-21.107 v -3.44 H 0 Z"
                 style="fill:#ffa800;fill-opacity:1;fill-rule:nonzero;stroke:none"
                 id="path1024" />
            </g>
          </g>
        </g>
      </g>
      <g
         id="g1032"
         transform="translate(412.25,86.752)">
        <path
           d="m 0,0 c 0,-0.463 -0.375,-0.837 -0.838,-0.837 -0.462,0 -0.836,0.374 -0.836,0.837 0,0.462 0.374,0.837 0.836,0.837 C -0.375,0.837 0,0.462 0,0"
           style="fill:#ffffff;fill-opacity:1;fill-rule:nonzero;stroke:none"
           id="path1034" />
      </g>
      <g
         id="g1036"
         transform="translate(411.4121,84.5762)">
        <path
           d="m 0,0 c -0.462,0 -0.836,-0.374 -0.836,-0.837 v -4.367 c 0,-0.462 0.374,-0.837 0.836,-0.837 0.463,0 0.838,0.375 0.838,0.837 v 4.367 C 0.838,-0.374 0.463,0 0,0"
           style="fill:#ffffff;fill-opacity:1;fill-rule:nonzero;stroke:none"
           id="path1038" />
      </g>
      <g
         id="g1040"
         transform="translate(425.0361,54.8398)">
        <path
           d="m 0,0 c 0,-1.63 -1.32,-2.952 -2.95,-2.952 -1.63,0 -2.952,1.322 -2.952,2.952 0,1.63 1.322,2.951 2.952,2.951 C -1.32,2.951 0,1.63 0,0"
           style="fill:#ecf0f1;fill-opacity:1;fill-rule:nonzero;stroke:none"
           id="path1042" />
      </g>
      <g
         id="g1044"
         transform="translate(424.4541,54.8398)">
        <path
           d="m 0,0 c 0,-1.309 -1.062,-2.369 -2.368,-2.369 -1.309,0 -2.369,1.06 -2.369,2.369 0,1.308 1.06,2.368 2.369,2.368 C -1.062,2.368 0,1.308 0,0"
           style="fill:#ffffff;fill-opacity:1;fill-rule:nonzero;stroke:none"
           id="path1046" />
      </g>
      <path
         d="m 406.887,87.97 h -0.755 v 3.548 h 0.755 z"
         style="fill:#bdc3c7;fill-opacity:1;fill-rule:nonzero;stroke:none"
         id="path1048" />
      <path
         d="m 406.887,84.103 h -0.755 v 1.813 h 0.755 z"
         style="fill:#bdc3c7;fill-opacity:1;fill-rule:nonzero;stroke:none"
         id="path1050" />
      <path
         d="m 406.887,81.556 h -0.755 v 1.813 h 0.755 z"
         style="fill:#bdc3c7;fill-opacity:1;fill-rule:nonzero;stroke:none"
         id="path1052" />
    </g>
  </g>
</svg>
